# xmcd
#
# Track frame offsets: 
#        150
#        15716
#        32526
#        46298
#        63168
#        90863
#        109308
#        145227
#        162161
#        194581
#        215320
#        234269
#        245987
#        267000
#        279331
#        289901
#        300408
#        313214
#
# Disc length: 4353 seconds
#
# Revision: 3
# Processed by: cddbd v1.5.2PL0 Copyright (c) Steve Scherf et al.
# Submitted via: ExactAudioCopyFreeDBPlugin 1.0
#
DISCID=f910ff12
DTITLE=Various Artist - Latin Dance Workout - Disc 1
DYEAR=1900
DGENRE=
TTITLE0=El Georgeo - Bamboleo
TTITLE1=El Georgeo - Volare
TTITLE2=Perez Prado - Mambo No 5
TTITLE3=Tito Manuelle's Big Band - Ritmo Latino
TTITLE4=Masquerade Project - Viva La Salsa
TTITLE5=Ritmo Alegria - Bongo
TTITLE6=Club Barracuda - I Like It
TTITLE7=Unicorn - Que Pasa?
TTITLE8=Freestyle Players - Salvacion
TTITLE9=The Four Flames - Can't Get Enough
TTITLE10=DJ Bounce - Time's Up
TTITLE11=El Georgeo - Vamos A Bailar
TTITLE12=El Georgeo - Elejibo
TTITLE13=El Georgeo - Pura Carroceria
TTITLE14=Rio Combo - Sway
TTITLE15=Dean Martin - Mambo Italiano
TTITLE16=Perry Como - Mama Loves Mambo
TTITLE17=Rio Combo - Mas Que Nada
EXTD=
EXTT0=
EXTT1=
EXTT2=
EXTT3=
EXTT4=
EXTT5=
EXTT6=
EXTT7=
EXTT8=
EXTT9=
EXTT10=
EXTT11=
EXTT12=
EXTT13=
EXTT14=
EXTT15=
EXTT16=
EXTT17=
PLAYORDER=
